<?xml version="1.0" encoding="UTF-8"?>
<svg xmlns="http://www.w3.org/2000/svg" version="1.1" width="300" height="300" viewBox="0 0 300 300"><rect x="0" y="0" width="300" height="300" fill="#ffffff"/><g transform="scale(9.091)"><g transform="translate(0,0)"><path fill-rule="evenodd" d="M10 0L10 2L11 2L11 0ZM12 0L12 1L14 1L14 3L13 3L13 2L12 2L12 4L16 4L16 5L14 5L14 7L15 7L15 8L13 8L13 9L12 9L12 7L13 7L13 5L11 5L11 6L10 6L10 4L11 4L11 3L8 3L8 4L9 4L9 5L8 5L8 7L9 7L9 8L6 8L6 9L7 9L7 10L6 10L6 11L7 11L7 12L5 12L5 8L0 8L0 11L3 11L3 12L2 12L2 13L1 13L1 14L2 14L2 15L1 15L1 16L0 16L0 18L1 18L1 19L2 19L2 20L1 20L1 21L0 21L0 25L1 25L1 21L2 21L2 20L3 20L3 19L4 19L4 21L5 21L5 18L6 18L6 19L7 19L7 20L6 20L6 21L7 21L7 22L6 22L6 23L5 23L5 22L3 22L3 24L2 24L2 25L3 25L3 24L6 24L6 25L7 25L7 24L6 24L6 23L8 23L8 24L9 24L9 25L8 25L8 27L11 27L11 28L10 28L10 29L9 29L9 28L8 28L8 33L10 33L10 32L11 32L11 33L18 33L18 32L19 32L19 30L21 30L21 31L20 31L20 33L21 33L21 32L22 32L22 33L26 33L26 32L23 32L23 31L24 31L24 30L23 30L23 31L22 31L22 30L21 30L21 29L19 29L19 30L17 30L17 29L18 29L18 28L17 28L17 29L16 29L16 27L18 27L18 26L20 26L20 28L22 28L22 29L23 29L23 27L24 27L24 29L25 29L25 30L26 30L26 31L27 31L27 33L28 33L28 32L31 32L31 33L32 33L32 32L31 32L31 31L32 31L32 30L31 30L31 31L27 31L27 30L30 30L30 29L29 29L29 27L30 27L30 28L31 28L31 29L32 29L32 28L33 28L33 27L32 27L32 26L33 26L33 24L32 24L32 26L31 26L31 25L30 25L30 24L31 24L31 23L32 23L32 22L33 22L33 21L32 21L32 20L31 20L31 19L32 19L32 18L33 18L33 17L32 17L32 16L31 16L31 15L32 15L32 14L33 14L33 13L31 13L31 15L30 15L30 16L31 16L31 19L30 19L30 17L29 17L29 16L28 16L28 15L27 15L27 17L26 17L26 15L25 15L25 16L24 16L24 15L21 15L21 14L22 14L22 13L23 13L23 14L25 14L25 13L26 13L26 14L27 14L27 13L30 13L30 12L31 12L31 11L32 11L32 10L33 10L33 9L32 9L32 8L31 8L31 9L30 9L30 8L29 8L29 9L30 9L30 10L27 10L27 9L28 9L28 8L27 8L27 9L26 9L26 8L25 8L25 6L24 6L24 8L23 8L23 5L24 5L24 4L25 4L25 3L24 3L24 4L23 4L23 1L24 1L24 2L25 2L25 0L23 0L23 1L22 1L22 2L21 2L21 0L17 0L17 1L14 1L14 0ZM8 1L8 2L9 2L9 1ZM17 1L17 3L18 3L18 4L21 4L21 5L19 5L19 7L18 7L18 5L16 5L16 6L15 6L15 7L16 7L16 6L17 6L17 8L18 8L18 9L19 9L19 7L20 7L20 6L21 6L21 7L22 7L22 6L21 6L21 5L23 5L23 4L22 4L22 3L21 3L21 2L20 2L20 1L19 1L19 2L20 2L20 3L18 3L18 1ZM9 6L9 7L10 7L10 6ZM11 6L11 7L12 7L12 6ZM10 8L10 9L9 9L9 10L7 10L7 11L8 11L8 12L11 12L11 13L9 13L9 17L6 17L6 18L8 18L8 20L7 20L7 21L8 21L8 22L10 22L10 25L9 25L9 26L11 26L11 27L12 27L12 28L11 28L11 29L12 29L12 30L11 30L11 31L12 31L12 32L14 32L14 31L15 31L15 30L16 30L16 31L17 31L17 32L18 32L18 31L17 31L17 30L16 30L16 29L12 29L12 28L15 28L15 26L16 26L16 25L17 25L17 24L18 24L18 25L19 25L19 24L18 24L18 22L19 22L19 23L20 23L20 22L19 22L19 20L20 20L20 21L21 21L21 23L22 23L22 22L23 22L23 23L24 23L24 24L25 24L25 23L24 23L24 22L26 22L26 23L28 23L28 24L29 24L29 21L30 21L30 23L31 23L31 20L30 20L30 19L29 19L29 17L27 17L27 18L28 18L28 19L27 19L27 20L26 20L26 19L25 19L25 18L26 18L26 17L24 17L24 18L17 18L17 20L14 20L14 19L15 19L15 18L16 18L16 17L13 17L13 19L12 19L12 17L11 17L11 15L10 15L10 14L13 14L13 15L12 15L12 16L19 16L19 17L22 17L22 16L21 16L21 15L20 15L20 14L18 14L18 13L20 13L20 10L18 10L18 11L16 11L16 13L15 13L15 14L16 14L16 13L17 13L17 14L18 14L18 15L14 15L14 13L12 13L12 11L13 11L13 12L14 12L14 11L15 11L15 10L16 10L16 9L13 9L13 10L12 10L12 9L11 9L11 8ZM20 8L20 9L21 9L21 10L22 10L22 11L24 11L24 12L26 12L26 13L27 13L27 12L28 12L28 11L27 11L27 10L25 10L25 9L24 9L24 10L23 10L23 9L22 9L22 8ZM2 9L2 10L3 10L3 11L4 11L4 10L3 10L3 9ZM10 9L10 11L11 11L11 9ZM24 10L24 11L25 11L25 10ZM30 10L30 11L29 11L29 12L30 12L30 11L31 11L31 10ZM18 11L18 12L17 12L17 13L18 13L18 12L19 12L19 11ZM3 12L3 13L4 13L4 12ZM21 12L21 13L22 13L22 12ZM6 13L6 14L4 14L4 16L5 16L5 15L6 15L6 16L7 16L7 15L6 15L6 14L7 14L7 13ZM1 17L1 18L2 18L2 19L3 19L3 18L4 18L4 17ZM9 19L9 21L10 21L10 22L12 22L12 21L13 21L13 22L14 22L14 24L13 24L13 23L12 23L12 25L11 25L11 26L12 26L12 25L14 25L14 26L15 26L15 24L17 24L17 23L16 23L16 22L14 22L14 20L12 20L12 19ZM20 19L20 20L22 20L22 21L23 21L23 22L24 22L24 21L26 21L26 22L27 22L27 21L29 21L29 20L27 20L27 21L26 21L26 20L24 20L24 19L23 19L23 20L22 20L22 19ZM17 20L17 21L18 21L18 20ZM23 20L23 21L24 21L24 20ZM21 24L21 25L20 25L20 26L21 26L21 27L23 27L23 26L24 26L24 25L23 25L23 26L21 26L21 25L22 25L22 24ZM25 25L25 28L28 28L28 25ZM29 25L29 26L30 26L30 27L31 27L31 26L30 26L30 25ZM26 26L26 27L27 27L27 26ZM26 29L26 30L27 30L27 29ZM12 30L12 31L13 31L13 30ZM9 31L9 32L10 32L10 31ZM0 0L0 7L7 7L7 0ZM1 1L1 6L6 6L6 1ZM2 2L2 5L5 5L5 2ZM26 0L26 7L33 7L33 0ZM27 1L27 6L32 6L32 1ZM28 2L28 5L31 5L31 2ZM0 26L0 33L7 33L7 26ZM1 27L1 32L6 32L6 27ZM2 28L2 31L5 31L5 28Z" fill="#000000"/></g></g></svg>
